<?xml version="1.0" standalone="no"?>
<!DOCTYPE svg PUBLIC "-//W3C//DTD SVG 20010904//EN"
 "http://www.w3.org/TR/2001/REC-SVG-20010904/DTD/svg10.dtd">
<svg version="1.0" xmlns="http://www.w3.org/2000/svg"
 width="260.000000pt" height="260.000000pt" viewBox="0 0 260.000000 260.000000"
 preserveAspectRatio="xMidYMid meet">
<metadata>
Created by potrace 1.14, written by Peter Selinger 2001-2017
</metadata>
<g transform="translate(0.000000,260.000000) scale(0.100000,-0.100000)"
fill="#000000" stroke="none">
<path d="M1232 1887 c-22 -23 -22 -26 -22 -454 0 -237 -3 -439 -6 -448 -4 -8
-19 -22 -35 -31 -16 -8 -35 -27 -43 -42 -8 -15 -26 -34 -41 -42 -40 -21 -50
-47 -29 -71 16 -18 33 -19 244 -19 211 0 228 1 244 19 21 24 11 50 -29 71 -15
8 -33 27 -41 42 -8 15 -28 35 -44 43 -16 8 -32 25 -35 38 -3 12 -5 162 -3 333
3 290 4 313 22 333 18 19 30 21 153 21 l134 0 -3 98 -3 97 -145 6 c-80 3 -161
11 -180 17 -58 20 -113 15 -138 -11z"/>
</g>
</svg>
